<svg width="40" height="30" viewBox="0 0 40 30" fill="none" xmlns="http://www.w3.org/2000/svg">
<path fill-rule="evenodd" clip-rule="evenodd" d="M31.7276 21.8184C32.5372 21.856 33.6775 23.0846 34.4503 23.3828L36.0704 24.8731L36.7696 23.2334C36.9905 22.9731 37.4316 23.085 37.5421 23.4199C37.6525 23.7551 37.1748 24.3882 37.0274 24.7608C36.8802 25.1332 36.9536 25.1712 36.88 25.3574C36.8062 25.544 36.4758 26.2495 36.585 26.3994C36.6955 26.5484 37.653 26.6981 37.837 26.7354C38.3154 26.847 39.2715 26.9215 39.6397 27.0703C40.3758 27.4056 39.8608 28.1881 39.1983 28.0391L36.3643 27.3311C36.2907 27.4067 36.1808 29.045 36.0704 29.3057C35.9598 29.5665 35.518 30.1617 35.3341 29.7149C35.1501 29.2678 35.3705 28.0013 35.4073 27.3682C35.4073 27.2939 35.4075 27.2569 35.3341 27.2197C35.15 27.108 33.0153 27.1447 32.6104 27.1074C32.6104 27.4799 32.3534 27.704 32.2061 28.002C31.8749 28.6724 31.5063 29.715 30.7335 29.9385C29.9239 30.1619 29.7034 29.752 29.2618 29.1934C28.8203 28.6349 28.5991 28.3742 28.4151 28.002C28.2311 27.6295 27.9728 27.0334 27.8624 26.9961C27.6781 26.9219 27.0901 27.1076 26.8692 26.9961C26.7588 27.0706 27.3473 27.4801 27.421 27.5547C27.6786 27.8527 27.8258 27.9275 27.5313 28.2627C27.09 28.7834 26.7957 28.1135 26.4278 27.8154C26.0598 27.5175 25.4705 27.1074 25.4337 27.1074H24.5138C24.5138 27.6661 25.1759 28.5605 24.1827 28.5234C23.189 28.4862 23.7042 27.3681 23.4835 27.1445L21.7169 27.294C21.6065 27.3685 21.6059 28.8213 21.5323 29.082C21.4586 29.3426 21.1271 29.4546 20.9063 29.3057C20.5752 29.0076 21.0172 27.3683 20.7227 27.3311L18.1095 27.4805C17.8893 27.6293 18.2198 27.704 18.1095 28.0391C17.7779 28.9329 15.7908 29.6773 14.9444 29.5283C14.098 29.3793 13.5458 28.7835 13.2882 28.4483C13.0308 28.1131 13.141 27.8155 12.9571 27.8154C12.1474 28.0017 11.0428 27.8895 10.3067 28.1875C9.57092 28.4855 9.6076 29.156 9.3868 29.2305C9.16598 29.3049 8.83505 29.2305 8.83505 29.2305C8.61457 29.0443 8.79802 28.5233 8.65145 28.4854C8.2098 28.5599 7.7308 28.6716 7.28915 28.7461C6.8475 28.8206 6.553 28.7089 6.22177 28.7461C5.66975 28.8206 5.33871 29.5283 4.49227 29.2676C3.64604 29.0069 3.79283 28.6722 3.462 28.2998C3.13076 27.9273 3.13064 28.1876 3.09384 27.8897C3.05705 27.5916 3.05673 26.8838 3.05673 26.6231C3.05677 25.7293 3.24092 24.6495 3.42489 23.793C3.60884 22.9366 3.64557 23.2336 3.64559 23.085C3.64559 22.936 3.27737 22.7122 3.38778 22.377C3.49826 22.0418 4.30815 22.3022 4.60262 22.4512C5.2283 22.7492 5.81716 23.234 6.36923 23.6065C6.92111 23.9788 7.47293 24.1279 7.95126 24.4629C8.42968 24.7981 8.61416 25.2081 9.05575 25.1709C9.05575 24.6122 8.98215 23.9415 9.05575 23.3828C9.12936 22.8241 9.20339 22.9727 9.46102 22.9727C10.3443 22.861 11.5586 23.1216 12.4786 22.9727C12.9571 22.8237 13.693 23.1223 13.877 23.6065C14.0608 24.0903 13.0319 24.0157 12.7735 24.0156C12.0742 24.0156 11.3745 23.9414 10.712 23.9414C10.0498 23.9414 9.97574 23.7927 9.97567 23.9785V25.1338L10.0128 25.2822C10.528 25.2822 11.0799 24.7239 11.5216 25.1709C11.9631 25.6178 11.4485 26.0277 11.0069 26.1768C10.5653 26.3258 9.93893 26.288 9.86532 26.3252C9.93893 26.6232 9.75497 26.9961 9.75497 27.2568C9.75556 27.5171 10.7484 27.257 10.9327 27.2568C12.184 27.0706 13.4724 26.9954 14.7237 26.9209C14.7606 26.9208 14.8711 26.8469 14.8712 26.7725C14.8712 26.698 14.3192 25.7296 14.2823 25.4688C14.1351 24.9473 14.135 24.4254 14.503 24.0156C14.8711 23.6063 15.5702 23.8293 16.2325 23.7549C16.895 23.6804 17.6681 23.2715 18.2569 23.5322C18.4524 23.6188 18.55 23.6729 18.5938 23.7061C18.6455 23.6482 18.7351 23.5573 18.8087 23.5322C19.876 23.0108 20.9803 23.0476 22.1212 23.1221C23.2617 23.1965 22.3427 23.2708 22.4522 23.1221C22.1946 21.4833 23.5931 22.2656 24.3292 22.7871C25.0653 23.3086 26.0963 24.2767 26.9796 24.9844C27.1636 25.8038 26.3907 25.7666 25.9122 26.0645C25.4337 26.3624 25.765 26.1021 25.8018 26.2139C26.501 26.2139 27.2 26.2133 27.8624 26.1016C27.8625 25.692 27.9734 25.2825 28.047 24.9102C28.1205 24.5379 28.3776 23.7933 28.5616 23.5693C28.8928 23.1224 30.2553 23.0473 30.7706 23.1963C31.2856 23.3453 31.1017 23.7179 31.212 23.9414C31.3224 24.1649 31.5801 24.2397 31.6905 24.3887C31.801 24.5379 32.0958 25.134 32.2061 25.3574C32.3165 25.5811 32.4269 26.0271 32.5372 26.1016L35.4815 26.3252C35.6655 26.3246 35.8858 25.6919 35.7755 25.543C35.665 25.3943 35.3713 25.3566 35.2608 25.2822C34.2672 24.5373 33.3834 23.5319 32.2794 22.8242C31.1753 22.1165 31.1749 22.4886 31.1749 22.1533C31.1751 21.8184 31.5437 21.8184 31.7276 21.8184ZM28.8565 27.0332C28.8197 27.0332 29.1882 27.7038 29.2618 27.7783C29.4096 28.0398 30.2547 29.2679 30.4757 29.3057C30.6964 29.3429 30.8441 29.1567 30.9913 29.0449C31.1385 28.9332 31.4326 28.2998 31.5431 28.0762H31.5059C31.5796 27.8527 31.8742 27.145 31.6534 27.0332H28.8565ZM14.0616 27.8154C14.1353 28.3369 14.9077 28.8583 15.4229 28.8955C15.9382 28.9328 16.3434 28.7465 16.5274 28.6348C16.7112 28.5232 16.7107 28.5228 16.6739 28.4111C16.1957 28.4109 15.8641 27.9638 15.4962 27.7031L14.0616 27.8154ZM4.67587 23.5693C4.41844 23.4949 4.56618 23.4949 4.52938 23.5693C3.97742 24.8729 3.93987 26.3251 3.97665 27.7031C4.16067 28.0384 4.5292 27.8524 4.86044 27.8897C5.19166 27.927 5.70669 28.1134 6.11141 28.0762C6.51626 28.0389 6.95797 27.6659 7.1788 27.4424V27.3682C7.58361 27.033 8.3934 26.2882 8.06259 25.7295C7.73135 25.1708 6.25851 24.5744 5.74325 24.2764C5.22818 23.9784 4.93345 23.6438 4.67587 23.5693ZM8.9454 26.3623C8.79819 26.3623 8.83474 26.3629 8.79794 26.4746C8.6876 26.698 8.61371 26.9211 8.42977 27.1445C8.24575 27.368 7.80441 27.7409 7.87802 27.8154C8.20919 27.8154 8.50356 27.7406 8.79794 27.6289C8.83477 27.2192 8.9822 26.8092 8.9454 26.3623ZM16.7843 27.6289C16.8947 27.7779 17.0788 27.7779 17.1524 27.6289H16.7843ZM20.8331 23.9414C20.5391 23.6811 20.5755 23.9038 20.4288 23.9043H20.4649C20.3177 23.9043 20.0603 23.9042 19.9132 23.9785C19.5819 24.053 19.0667 24.3883 18.7354 24.2393C18.4049 24.0906 18.5507 24.0159 18.5147 24.0156C18.4779 24.0156 18.4038 24.202 18.3302 24.2393C18.0358 24.4999 17.6314 24.3514 17.337 24.4258C17.0426 24.5003 16.7847 24.6122 16.4903 24.6494C16.0488 24.6867 15.5705 24.6495 15.129 24.6123C14.6505 24.9848 15.3863 26.698 15.7911 26.7725L20.8331 26.5859C21.0906 26.139 20.9806 25.58 20.9806 25.0586C20.9806 24.5373 21.1275 24.2021 20.8331 23.9414ZM21.753 23.9414V26.4375C21.9005 26.6236 22.9308 26.4376 23.1886 26.4375C23.2621 26.4003 23.3356 26.3255 23.2989 26.2139C23.1149 25.7669 23.1151 25.2448 22.9679 24.7979C22.7471 23.9415 22.7098 23.9042 21.753 23.9414ZM30.6231 24.3516C30.4023 24.1653 29.7027 24.0533 29.4083 24.165C29.1507 24.2403 28.71 25.5425 28.6729 25.8037C28.6362 26.0643 28.6723 25.9531 28.7091 26.0274C28.8931 26.2136 30.5858 26.1016 30.9542 26.1016C31.3222 26.1016 31.5069 26.2506 31.6173 26.1016C31.7257 25.951 30.9178 24.9099 30.7706 24.7236C30.6235 24.5375 30.6965 24.4261 30.6231 24.3516ZM23.8145 23.5322C23.7409 23.4577 23.6668 23.532 23.63 23.6065C23.6302 23.682 23.7771 24.5371 23.8507 24.7236C23.9241 24.9095 24.1448 25.8005 24.2188 25.8408C24.2924 25.8781 24.6244 25.6544 24.7716 25.6172C24.9567 25.5428 25.9112 25.4685 25.6915 25.0967V25.0586L23.8145 23.5322Z" fill="white"/>
<path fill-rule="evenodd" clip-rule="evenodd" d="M27.9737 14.0342C28.5258 13.9224 28.5998 14.257 28.9679 14.4805C29.7775 14.9273 31.249 14.7043 32.169 14.9649C32.5001 15.1138 32.8316 15.4491 32.5011 15.7842C32.1699 16.1194 31.1023 15.7474 30.587 15.6729C30.0717 15.5984 30.2186 15.6729 30.0714 15.6729C29.5194 15.5984 28.9675 15.5234 28.4522 15.2627C28.3418 15.2627 27.9734 16.5671 28.047 16.6416C28.4518 16.7534 28.7837 16.6789 29.1886 16.6416C29.5937 16.604 30.7709 15.9713 30.9181 16.6416C31.0651 17.3116 30.771 16.9767 30.6974 17.2744H32.9425C33.7152 17.2744 34.2307 17.3122 34.7091 17.3867C35.408 17.4987 35.408 18.4294 34.7091 18.4668C34.0098 18.5041 33.5307 18.169 32.9786 18.169L27.8263 18.2432V19.0996C27.9367 19.0996 28.0105 19.1367 28.0841 19.1367C29.4089 19.174 30.697 19.0251 32.0587 19.3975C33.4204 19.77 32.9051 19.6214 32.8682 20.0684C32.7944 20.7756 31.6912 20.1803 31.2862 20.0684C29.8877 19.7704 28.4521 19.9935 27.0167 19.919C26.5752 19.7325 26.9796 18.5035 26.8692 18.0938C26.6115 18.168 25.9128 17.9078 25.7286 18.0938C25.5446 18.28 25.6915 18.7649 25.6915 18.9512C25.6914 19.137 25.6183 19.2487 25.6182 19.4346C25.6182 19.6204 25.6916 20.1773 25.6554 20.2539C25.5818 20.5147 24.9552 20.7015 24.8448 20.3662C24.6976 19.8819 24.992 18.2056 24.8448 18.0567C24.6979 17.9081 24.7347 18.0196 24.6612 17.9824C23.9251 17.9079 23.0047 18.0194 22.2686 18.0567C22.3422 18.3174 22.3426 18.4297 22.1954 18.6904C22.0484 18.9505 22.0119 18.7648 22.0118 18.876C22.0118 19.3602 23.1527 20.1429 23.1895 20.3291C23.2628 20.6642 22.7837 20.9252 22.4893 20.8135C22.0478 20.6269 21.4963 19.4723 21.1651 19.0625C20.9075 18.8763 20.4654 18.9884 20.171 18.9512C19.8766 18.9139 19.6561 18.7641 19.3985 18.6524C19.141 19.0992 18.8833 20.4028 18.4786 20.6641C18.0738 20.9248 17.6313 20.5524 17.6681 20.1055C17.2633 20.1427 16.8218 20.1052 16.4171 20.1797C16.0123 20.2542 15.6444 20.3659 15.2765 20.4404C14.9085 20.5149 14.0247 20.5524 14.0245 20.6641C14.0245 20.9248 14.4666 20.6645 14.4298 21.0742C14.393 21.4836 14.3194 21.5212 14.0987 21.6328C13.5467 21.8563 13.4364 21.0737 13.1788 20.7012C12.9212 20.3287 12.663 20.1052 12.4054 19.919C11.6326 19.4721 10.8966 19.6954 10.087 19.3975C9.93978 19.3975 10.2338 20.4781 10.2706 20.5899C10.3075 20.7763 10.5655 21.3347 10.5655 21.4092C10.5654 21.7444 10.0129 21.9302 9.79208 21.7813C9.57144 21.631 9.42424 20.2169 9.35067 20.1797C9.2036 20.0312 9.16675 20.5893 9.12997 20.6641C8.76193 21.6325 6.88467 21.5583 6.03817 21.3721C5.19174 21.1858 4.75012 20.8505 4.05087 20.8877C3.97727 20.8505 3.83022 19.994 3.83016 19.8447C3.83016 19.6959 3.90363 19.1378 3.75692 19.0625L1.40145 18.8389C1.10709 18.7644 0.186712 18.7646 0.0391481 18.4668C-0.10801 18.1689 0.186238 18.0198 0.480554 17.9824C1.3638 17.9079 2.24739 18.0565 3.09384 18.0938C3.93967 18.131 3.94032 18.1309 4.01376 18.0938C4.16097 18.0565 4.23507 17.2001 4.30868 16.9766C4.71353 15.5984 5.96487 15.1518 7.25302 15.5615C8.54089 15.9712 8.35711 16.2692 7.84188 16.6416C7.32663 17.014 6.55347 16.2314 5.92782 16.5293C5.30221 16.8273 5.04503 17.5351 5.15536 18.0938C6.33299 18.131 7.51093 17.8705 8.68856 17.7588C8.7988 17.7587 8.87216 17.6839 8.87216 17.5723L8.7618 16.083C8.6882 15.636 9.24044 15.4125 9.60848 15.3008C10.3078 15.0773 11.0437 15.1886 11.5958 15.6729C12.1478 16.157 11.9643 16.6784 12.1114 17.3115C12.4793 17.3487 12.8477 17.3115 13.1788 17.3115C13.5098 17.3116 13.7677 17.4233 13.7677 17.2744C13.7677 16.8274 13.6941 15.8588 13.7677 15.4863L13.8038 15.4492C13.9143 14.8906 15.4605 15.0396 15.8653 15.1514C16.2704 15.2633 17.3736 15.785 16.9688 16.3809C16.5638 16.9758 15.3133 15.6733 14.6876 16.0449C14.5772 16.1194 14.6508 16.9769 14.6876 17.1631C15.9756 17.4238 17.3374 17.3114 18.6622 17.3486C18.699 17.3486 18.7357 17.3488 18.7725 17.3115C18.9933 17.1621 19.0668 15.0024 19.4347 14.7041C19.729 14.5924 20.2816 14.8905 20.2452 15.2256C20.2084 15.5605 20.134 15.3752 20.1339 15.5234C20.1339 15.6724 20.5018 16.8268 20.6124 16.9766C20.7228 17.1256 20.6865 17.163 20.797 17.2002L24.8819 17.0508C24.9555 17.0508 24.9926 17.0511 25.0294 16.9395C25.0662 16.7905 25.0658 16.3806 25.1026 16.1943C25.1394 16.0081 25.2866 15.7471 25.213 15.4863C24.2194 15.263 23.1887 15.338 22.1583 15.3008C21.8641 15.3004 21.7911 14.6674 22.0118 14.5557C22.2328 14.4442 22.8577 14.5556 23.1153 14.5557C23.3726 14.5557 23.263 14.5187 23.336 14.5186C23.8881 14.5186 24.5144 14.5926 25.0665 14.6299C25.1039 14.627 25.2514 14.1826 25.6182 14.2197C25.9863 14.257 25.9131 14.5922 26.1339 14.7412C26.3548 14.8902 26.9434 15.0027 27.0538 15.0772C27.164 15.1521 27.2375 15.5234 27.3477 15.4121C27.4582 15.3004 27.6057 14.1087 27.9737 14.0342ZM9.05673 18.6152C8.09984 18.727 7.14252 18.9509 6.18563 19.0254C5.22888 19.0999 5.11829 19.0253 5.0079 19.0625C4.8975 19.0998 4.78716 20.1049 5.0079 20.2168C5.3391 20.3658 5.92793 20.4029 6.29598 20.5147C6.99519 20.5519 8.09936 20.7387 8.5411 20.0313C8.98275 19.3235 8.6885 19.4721 8.79891 19.3604C9.0565 19.1 9.35107 19.5091 9.05673 18.5781V18.6152ZM17.3009 18.2061C17.0801 18.2433 16.8957 18.6531 16.4542 18.6904C16.0125 18.7277 14.7609 18.0569 14.6505 18.2432C14.6503 18.467 14.3933 19.5829 14.5401 19.6953C14.6873 19.807 16.1582 19.3238 16.4903 19.2861C16.8215 19.2489 17.7047 19.2489 17.8155 19.2861C17.9259 19.3234 17.8529 19.4346 17.8897 19.4346H17.8526C18.0735 19.5836 18.4786 18.5036 18.4786 18.3174C18.4786 18.1313 18.478 18.2433 18.4044 18.2061H17.3009ZM12.4786 18.2061C12.3322 18.2074 12.4786 18.8396 12.4786 18.9512C12.6626 18.9512 13.473 19.6584 13.5099 19.6211C13.5466 19.5838 13.5831 19.5089 13.5831 19.4717L13.6905 18.2061H12.4786ZM11.7061 18.4297C11.5221 17.9827 10.8225 18.429 10.4913 18.3545C10.3448 18.466 11.0045 18.6148 11.0802 18.6524C11.3377 18.6896 11.8897 18.8762 11.7061 18.4297ZM10.8966 16.2686C10.6389 16.1196 9.82924 16.12 9.71884 16.418C9.68209 16.6044 9.71881 17.3114 9.71884 17.5723C9.71884 17.833 9.79269 17.6847 9.8663 17.6475C10.2342 17.6474 10.639 17.5354 11.0069 17.4609C11.375 17.3864 11.5222 17.5724 11.4854 17.2744C11.4486 16.9764 11.1542 16.4175 10.8966 16.2686ZM19.8028 16.9766C19.7659 16.9785 19.6935 17.3486 19.877 17.3486C20.0604 17.2367 19.9132 16.9021 19.8028 16.9766ZM27.2745 15.4863C26.8698 16.1194 26.6121 15.7847 26.0235 15.6729C26.0235 15.8961 25.729 16.9373 25.8018 17.0508C26.1699 17.1625 26.5754 17.2003 26.9434 17.1631H26.9796L27.2745 15.4863Z" fill="white"/>
<path fill-rule="evenodd" clip-rule="evenodd" d="M22.9679 7.29102C22.8943 6.84407 22.9686 6.58303 23.4102 6.84376C23.8519 7.10457 24.3305 7.99906 24.3673 8.25977C24.4406 8.78106 24.0361 9.48837 23.9991 10.0469C24.5511 10.0467 25.2502 9.37706 25.7286 9.89845C26.207 10.4199 25.7282 10.7182 25.3233 10.8672C24.9185 11.0159 24.1098 10.9412 23.7784 11.0899C23.4472 11.2388 23.5568 11.5746 23.4464 11.7236C23.115 12.1706 22.3421 12.8778 21.7901 12.915C21.2391 12.9519 20.8348 12.2471 20.7237 12.2451C20.5766 12.2451 20.7603 12.915 20.7237 13.1016C20.6501 13.4368 20.4286 13.3998 20.2813 13.5488C20.1344 13.6977 20.2814 13.7723 20.0606 13.8096C19.1039 13.9957 19.0668 13.5116 18.5147 13.0274C17.9628 12.5433 17.3375 12.0965 16.712 11.9102C16.0863 11.7239 15.6808 11.8728 15.0919 11.9473C15.0188 12.2829 15.8653 13.4742 15.8653 13.5859C15.8653 13.8839 15.3495 13.9957 15.0919 13.8467C14.8344 13.6973 14.4305 12.693 14.3565 12.4316C14.2829 12.1709 14.0981 11.1272 14.0245 11.0527C13.9507 10.9787 13.7676 10.9785 13.7306 10.9785C13.5097 11.798 13.546 12.7291 12.8468 13.3623C12.1475 13.9954 11.4482 14.1072 10.9698 13.3623C10.4915 12.6175 10.3813 12.0587 10.087 11.4629C9.97663 11.314 9.57189 11.5741 9.38778 11.5371C9.49819 12.1703 9.57156 12.3572 9.24032 12.9531C8.9088 13.549 7.58406 14.1071 6.7745 14.1816C5.96528 14.2561 6.58966 14.1075 6.44345 14.1445C6.0754 14.1818 5.74349 14.5167 5.30184 14.4795C4.86062 14.442 4.82335 14.0333 4.71298 13.9961C4.60236 13.9594 4.30799 14.2564 4.12411 14.0703C3.94023 13.884 3.94052 13.4369 3.94052 13.3252C3.94052 13.1017 4.01407 12.5805 3.83016 12.5059C3.64614 12.4314 2.24703 12.5059 1.87899 12.5059C1.51111 12.5058 1.14332 12.3938 1.10653 12.3193C1.0697 12.2445 0.996179 11.9093 0.996179 11.8721C1.03374 11.649 1.65896 11.6113 1.84286 11.6113C2.39492 11.6114 3.20492 11.7239 3.75692 11.6494C4.30844 11.575 3.90372 11.6487 3.94052 11.5742C3.97728 11.4981 4.01411 10.6802 4.05087 10.4941C4.12451 10.01 4.4553 9.15388 4.49227 8.78126C4.52906 8.40894 4.23524 8.22239 4.49227 7.99903C4.7499 7.77554 4.97134 7.99889 5.15536 8.03614C5.56012 8.1478 6.0016 8.14806 6.40634 8.25977C7.17918 8.48326 9.35032 9.41397 9.01962 10.5313C8.95888 10.7362 8.90528 10.8743 8.86141 10.9649C9.17847 10.9304 9.90243 10.5926 9.90243 10.5313C9.90238 9.82366 9.75594 9.00446 9.8663 8.29688C9.97671 7.58917 9.94009 7.88687 10.1241 7.84962C11.0803 7.66382 10.676 8.63177 10.6759 9.19044C10.6759 9.74916 10.7123 9.41449 10.7491 9.56349C10.7858 9.7129 10.713 10.2713 10.8233 10.3457L12.6632 10.1221C12.7736 9.93585 11.8901 8.70639 12.3682 8.11036C12.8467 7.51439 12.8841 8.25978 13.0313 8.52052C13.1787 8.78192 13.5831 9.97315 13.6934 10.1221C13.8036 10.2707 13.9507 10.1595 13.9513 10.1221C13.9513 9.71252 13.8778 9.11666 13.9513 8.74415L13.878 8.66895C13.8786 8.63052 14.0247 8.26032 14.0616 8.25977C14.2456 8.03628 14.5036 8.18472 14.6876 8.14747C14.8714 8.11019 15.092 7.99918 15.3126 7.99903C15.9751 7.99903 16.675 8.5575 17.0431 9.11622C17.411 9.67486 17.4847 10.0477 17.6319 10.085C17.8896 10.2336 18.5146 10.0851 18.8458 10.085C18.8458 9.60079 18.1471 7.99894 19.1036 8.11036C20.0603 8.22208 19.5462 8.5944 19.6563 8.96681C19.7667 9.33929 19.9873 9.97253 20.0977 10.0098L22.9317 10.2334C23.042 10.2333 23.0785 10.1586 23.1153 10.0469C23.1526 9.93274 23.4455 8.59849 23.4464 8.52052C23.4464 8.25978 23.0415 7.738 22.9679 7.29102ZM8.3204 11.835C8.02611 11.835 7.54774 12.0582 7.17977 12.1328C6.81188 12.2073 6.48026 12.2821 6.11239 12.3193C5.74448 12.3566 5.04539 12.32 4.8243 12.4316C4.60348 12.5434 4.64028 13.0276 4.8243 12.9531C5.44998 12.0592 5.41317 12.9527 5.41317 13.5859C5.89153 13.3999 6.44365 13.4369 6.92196 13.3252C7.40044 13.2134 8.17321 12.9526 8.3204 12.8408C8.61471 12.6173 8.79897 12.1328 8.46786 11.8721H8.50399C8.4671 11.8352 8.39371 11.835 8.3204 11.835ZM12.7364 10.9785C12.6606 10.9045 11.1905 11.0526 10.9698 11.0899C10.7493 11.127 10.8601 11.0905 10.8233 11.2022C10.7497 11.3884 11.5592 13.0272 11.7432 13.0645C12.332 13.2129 12.7003 11.3882 12.7003 10.9785H12.7364ZM17.1905 11.0899H17.1534C17.4478 11.3878 17.8889 11.5002 18.2569 11.7608C18.625 12.0215 18.7731 12.1704 18.9571 12.3193C19.1412 12.4686 19.5092 12.9901 19.6563 13.0274C19.9128 13.1378 19.5832 12.248 19.5821 12.1709C19.4717 11.7612 19.2879 11.3883 19.1407 10.9785L17.1905 11.0899ZM20.6495 10.9785C20.5397 11.0534 21.4582 12.0942 21.6798 12.1328C21.9004 12.17 22.6726 11.278 22.6739 11.1279C22.6739 10.9791 22.5269 11.0156 22.4532 11.0156L20.6495 10.9414V10.9785ZM4.7872 11.5742H4.97079V11.4629H4.7872V11.5742ZM4.89755 10.1592C4.89765 10.3824 5.30187 10.2706 5.4493 10.3076C5.59648 10.3449 5.81741 10.4199 6.03817 10.4199C6.25892 10.4199 7.914 10.3453 8.02548 10.1592V10.1963C8.20935 9.93577 7.3647 9.4521 7.17977 9.33985C6.6278 9.07916 5.96486 8.89313 5.37606 8.74415L4.89755 10.1592ZM15.1661 8.89259C14.7245 9.00433 14.6139 9.78671 14.7979 10.1592C15.0193 10.2336 16.5265 10.3079 16.6378 10.1592C16.7482 10.0102 16.1229 9.3022 15.9757 9.19044C15.7549 9.00426 15.4604 8.81829 15.1661 8.89259Z" fill="white"/>
<path fill-rule="evenodd" clip-rule="evenodd" d="M11.0802 1.96388C11.0802 1.44197 11.0806 -0.233322 11.9268 0.0273527C12.7733 0.288088 12.2951 0.101433 12.7735 0.138681C13.8776 0.138744 14.6876 0.69776 15.2765 1.62892C15.8652 2.56001 15.7913 2.48623 15.46 3.04493C15.129 3.60321 15.0925 3.34239 15.2765 3.45411C16.3804 3.19346 17.5211 3.11902 18.6251 3.15626L18.5518 3.08204C18.5886 3.04484 18.2579 2.56182 18.1837 2.52345C17.9261 2.18821 17.484 1.77833 17.1895 1.51759C16.8952 1.25693 16.4908 1.18205 16.4171 0.735361C16.3435 0.288381 16.4908 0.214015 16.7852 0.176767C17.0798 0.139926 17.8522 1.03353 18.0362 1.21974C18.2203 1.40603 18.6253 1.77828 18.8829 2.07618C19.1403 2.37403 19.1402 2.70882 19.2872 2.29981L19.8399 0.437509C20.024 0.139522 20.502 0.176632 20.6124 0.474618C20.7227 0.772552 20.5756 1.14472 20.502 1.36817C20.4284 1.59166 19.9138 2.97043 19.9874 3.04493H20.5391C21.0912 3.0822 21.7537 3.23048 22.3057 3.23048C22.6738 3.23043 23.0787 3.00769 23.3731 3.04493C23.6678 3.08237 24.477 3.49201 24.2931 3.82716C24.109 4.16196 23.8513 4.0879 23.8145 4.0879C23.6673 4.08784 23.52 3.90138 23.336 3.90138C23.1523 3.90143 23.1521 4.01246 23.0421 4.0127C22.0484 4.19895 21.1647 3.90138 20.171 3.90138C20.1712 4.08741 20.4659 4.08727 20.5763 4.27345C20.8338 4.75758 19.619 4.83248 19.4347 4.38575C19.3235 4.38789 18.6618 5.83832 18.5147 6.02442C18.2203 6.35957 17.7055 6.32223 17.7423 5.80079C17.7791 5.27948 17.9261 5.2426 17.6319 5.42872C17.3375 5.61496 17.631 5.53991 17.5206 5.57716C17.079 5.72562 16.3433 5.05632 15.9386 4.90724C15.5337 4.75825 15.1656 4.79519 14.7608 4.72071C14.3561 4.64623 13.7673 4.27383 13.6934 4.53419C13.6199 4.79487 14.0614 5.80042 14.0616 6.09864C14.0616 6.39661 13.3622 6.5086 13.2149 6.28517C13.0678 5.98737 12.9942 4.79674 12.8839 4.64649C12.7735 4.4975 12.074 4.64649 12.0372 4.64649C12.0003 4.68616 11.9265 5.39133 11.8897 5.54005C11.7425 6.06153 11.0802 6.95508 10.4913 6.69434C9.90286 6.43373 9.6818 6.13633 9.57137 5.98731C9.46096 5.83832 9.27651 5.68918 9.1661 5.50294C9.05574 5.31667 9.01903 4.98145 8.83505 4.98145C8.65095 4.98149 8.28297 5.01844 8.24618 5.05567C8.20934 5.09297 7.87809 5.50249 7.76766 5.61427C7.58373 5.80042 7.32667 5.91264 7.14266 6.06153C6.66421 6.47126 5.81716 7.47698 5.19149 6.84376C4.56607 6.21066 5.1178 5.61479 4.86044 5.20509C4.82363 5.16784 3.90316 5.27917 3.75594 5.31642C3.38759 5.39113 2.21022 5.91238 2.09969 5.20509C1.98928 4.49737 2.28445 4.86943 2.54208 4.79493C2.94668 4.64603 3.35134 4.49736 3.75594 4.42286C4.16079 4.34836 4.67617 4.34808 4.71298 4.23634C4.74975 4.12462 4.49277 3.26864 4.41903 3.15626C4.30865 3.00731 3.79338 3.26779 3.79305 2.78419C3.79305 2.30036 4.01361 2.4111 4.12411 2.29981C4.23452 2.18807 3.86631 1.33107 3.8663 1.07032C3.8663 0.809583 3.79354 0.325482 4.08798 0.250986C4.38213 0.288051 4.63952 0.175947 4.93368 0.138681C5.63296 0.101432 6.81106 0.399852 7.21591 1.07032C7.62073 1.74077 7.10543 2.37389 6.73739 2.67188C6.36935 2.96987 6.29592 2.78377 6.40634 2.89552C6.51693 3.00715 7.14139 3.11889 7.28915 3.19337C7.7676 3.41686 8.20981 3.78908 8.65145 4.04981C8.65133 3.60295 8.43044 3.15598 8.39364 2.67188C8.35684 2.18758 8.32029 0.920886 8.5411 0.660165C8.76206 0.399885 9.23999 0.511851 9.31356 0.77247C9.38708 1.03309 9.2401 1.44241 9.20321 1.70313C9.16641 1.96387 9.38766 3.7521 9.60848 3.97559C9.82949 4.19881 10.7856 3.86427 11.0802 3.90138C11.2273 3.86414 11.1905 3.045 11.1905 2.85841C11.1905 2.56042 11.0802 2.22461 11.0802 1.96388ZM5.92782 5.98731C6.14865 5.76382 6.44332 5.61496 6.66415 5.42872C6.88473 5.24268 6.84782 5.27929 6.84774 5.16798V5.12989H5.78036L5.92782 5.98731ZM11.0802 4.72071C10.749 4.75795 10.381 4.7948 10.0499 4.83204C9.71865 4.86929 9.93984 4.79549 9.97665 4.90724C10.014 5.16819 10.6391 5.7638 10.8966 5.72657C11.1539 5.68891 11.2275 4.87019 11.1173 4.6836L11.0802 4.72071ZM18.5147 4.0127H16.711C16.6992 4.01514 16.3456 4.08935 16.4542 4.19923C16.5644 4.31056 16.6013 4.19912 16.6749 4.23634C16.9694 4.42259 17.5579 4.72116 17.8155 4.87013C18.0728 5.01912 17.9263 5.27935 18.1837 4.90724C18.4413 4.53481 18.5886 4.05021 18.5518 3.97559L18.5147 4.0127ZM5.55966 3.417C5.41265 3.417 5.44923 3.41696 5.4493 3.49122C5.4493 3.56568 5.59636 4.19848 5.67001 4.23634C6.07473 4.38528 6.95771 4.16205 7.3995 4.23634C7.50991 4.12459 6.77389 3.78921 6.70028 3.75196C6.51551 3.67726 5.70677 3.417 5.55966 3.417ZM12.1847 1.18165C12.0007 0.623461 11.964 1.2569 11.964 1.51759C11.964 2.2252 12.2211 2.97001 12.1475 3.71485V3.75196C12.2948 3.75196 12.5896 3.78949 12.6632 3.67774C12.7734 3.49106 12.2951 1.51684 12.1847 1.18165ZM12.9942 0.883798C12.8103 0.883798 12.9938 1.25616 13.0675 1.36817C13.1411 1.59158 13.3249 2.74606 13.3985 2.8213C13.5457 2.93304 14.6136 2.82088 14.7608 2.67188C14.9079 2.52299 14.8341 2.55984 14.8341 2.48536C14.8335 2.11277 13.9516 1.21969 13.6202 1.07032C13.2897 0.921638 13.1052 0.884046 13.0313 0.920907L12.9942 0.883798ZM4.7872 0.883798C4.71368 0.958196 5.04353 2.11026 5.15438 2.18751C5.26474 2.26197 6.11106 2.1136 6.25887 2.03907C6.40595 1.96465 6.5531 1.62969 6.51669 1.48048C6.4799 1.03368 5.15588 0.809488 4.7872 0.920907V0.883798Z" fill="white"/>
</svg>
