<svg width="32" height="30" viewBox="0 0 32 30" fill="none" xmlns="http://www.w3.org/2000/svg">
<path fill-rule="evenodd" clip-rule="evenodd" d="M19.1094 0.0058482C20.602 0.0749409 20.4582 0.451676 21.5508 0.963856C21.6418 1.0065 21.9177 0.992987 22.0283 1.17186C22.2105 1.46683 22.0035 1.54276 22.4648 1.91503C23.3448 2.62493 27.016 4.16798 27.3408 4.79491C27.4586 5.02289 27.5537 5.48307 27.665 5.76171C27.8338 6.18387 28.1752 6.52248 28.0752 7.02343C29.2215 6.40914 30.1804 6.24351 31.0898 7.32714C32.255 8.71547 31.9009 10.5344 31.7422 12.1992C31.6512 13.1535 31.6225 14.0728 31.2979 14.9902C30.9628 15.9368 29.6701 19.2018 28.8945 19.6621C28.6922 19.7821 28.5423 19.6104 28.5127 19.8555L28.4043 19.6914C28.3885 19.6758 28.3307 19.7257 28.3213 19.7451C28.1806 20.038 28.1284 20.6493 27.9785 20.9394C27.8635 21.1619 27.5627 21.4567 27.457 21.7324C27.2166 22.3601 27.5154 23.0558 27.1885 23.6045C27.1018 23.7496 26.9764 23.5993 26.8975 23.748C26.682 25.449 25.5831 27.4367 23.6084 27.2578C23.4335 27.2419 22.8806 27.0653 22.791 27.0976C22.6652 27.1432 22.7802 27.335 22.5654 27.3086C22.4779 27.7782 21.9385 27.8268 21.8516 27.3125C21.4193 27.4285 21.0204 27.9007 20.5684 27.8086C20.2723 28.5811 19.612 29.2379 18.8721 29.5693C19.0013 30.2131 18.0214 29.9747 17.6582 29.8633C16.4612 29.4959 14.7625 28.8463 13.8184 28C13.6013 27.8054 13.0733 27.1003 12.791 27.0488C12.6829 27.0291 12.358 27.2132 12.0918 27.207C10.8553 27.178 9.29031 25.847 8.74609 24.792C8.37849 24.0792 8.22214 23.2104 7.90234 22.4697L7.67969 22.3516L7.81641 21.9414C7.75543 21.7975 6.85157 21.1184 6.66504 21.0019C6.61498 20.9707 6.57569 20.9981 6.52734 21.0068L6.69043 20.8418L6.58105 20.624L6.74707 20.623C6.63338 20.4068 6.90769 20.3324 7.06934 20.2305L7.01953 19.6914L6.8291 20.2939L6.73828 19.6445C6.47291 19.5734 6.06919 19.5435 5.8291 19.4287C5.51447 19.2779 5.27762 18.8193 4.93652 18.7588C5.01556 18.4161 5.25578 17.807 5.63477 17.7305C5.79313 17.6986 6.21095 17.7652 6.28223 17.6641L6.3623 16.456L6.47168 16.5107L6.4668 16.3516C6.28981 16.3769 6.27404 16.2118 6.19336 16.1582C5.80495 15.9003 5.15357 15.6964 4.78613 15.4336C4.68593 15.3618 4.57548 15.1809 4.4541 15.0986C4.31647 14.7511 4.56641 14.5753 4.74219 14.3154L5.26465 14.0176C5.10041 13.8291 4.98447 13.4865 4.82617 13.3037C4.67847 13.1332 4.12549 12.6993 3.95996 12.6201C3.8559 12.5704 3.63312 12.573 3.51074 12.5625L3.56641 12.4531L2.01465 12.3857L1.92188 12.3164L2.25 12.0957L2.08594 11.9873L2.43066 11.3721C2.56676 11.3729 2.72146 11.2562 2.83105 11.2471C3.0372 11.23 3.84857 11.2804 4.08008 11.3076C5.18395 11.4373 6.29405 12.8212 6.63672 13.8232L6.72461 13.7099C7.33726 13.6253 7.91312 14.759 8.10254 15.2363C8.7195 16.7908 8.24461 17.6019 7.91211 19.0752C7.86961 19.2639 7.92612 19.4615 7.88379 19.6504C7.84288 19.8324 7.62602 20.0586 7.52344 20.2139C7.77492 20.4491 8.07083 20.6457 8.2998 20.9043C8.43928 21.0618 8.89958 21.6804 8.9541 21.8476C8.99632 21.9774 8.92768 22.0696 8.97363 22.2012C9.51769 23.7525 10.0593 25.383 11.5674 26.2461C11.9179 26.1655 12.0463 25.9192 12.4268 25.8935C12.5473 25.8855 12.654 25.9705 12.792 25.9336C12.8892 25.9075 13.0496 25.6696 13.2012 25.625L13.3525 25.7226L13.5996 25.5596L13.4951 26.3213C14.2434 26.5371 14.6115 27.2799 15.2051 27.7099C15.9333 28.2375 17.6695 29.0469 18.5586 28.9004C19.4941 28.7461 19.7489 27.2684 20.3086 26.7851C20.4338 26.6771 21.4909 26.0721 21.6777 25.9873C21.9154 25.8794 22.4639 25.6834 22.374 26.1074C22.4738 26.0777 22.6877 25.9754 22.7783 26.0029C22.8467 26.0239 22.8428 26.1444 22.9062 26.1631C23.0397 26.2021 23.5606 26.2864 23.7314 26.3115C24.0328 26.3558 24.2807 26.408 24.5791 26.3115C25.2335 26.0997 25.9101 24.7115 25.8838 24.0537C25.868 23.6601 25.6241 23.4186 25.5527 23.0752L25.6689 22.8789L26.1006 23.0371L26.1299 22.8711L26.5947 23.0918C26.6761 22.7097 26.6813 22.3352 27.0332 22.1045C26.8497 22.0475 26.7885 22.2025 26.6777 22.2461C26.644 22.2593 26.5569 22.1921 26.4971 22.2226C26.4664 22.2388 26.3715 22.4882 26.2119 22.4326C26.0881 21.6688 26.8247 21.3339 27.1348 20.8066C27.3844 20.3821 27.4174 19.8863 27.9111 19.5547L28.2588 19.5283L28.2959 19.418L28.3506 19.582C28.4091 19.6552 28.6554 18.7247 28.6904 18.6338C29.152 17.4352 29.6996 16.1077 30.1562 14.9863C30.3363 14.5442 30.2785 14.2562 30.3213 13.8584C30.3255 13.8189 30.432 13.8476 30.4395 13.7432C30.4451 13.6641 30.459 13.1045 30.4521 13.0625C30.4288 12.9324 30.3214 12.9641 30.3232 12.8721C30.3277 12.6572 30.485 12.5416 30.5156 12.4258C30.5734 12.2066 30.4789 11.9567 30.4941 11.8193C30.6156 10.7294 30.8477 9.66507 30.3701 8.59472C30.0469 7.87046 29.31 7.04248 28.4873 7.62792C28.0325 7.95158 26.9293 9.76012 26.7832 10.3115C26.7689 10.3652 26.7137 10.4921 26.8135 10.4785C26.9881 10.1462 27.6404 9.39718 27.9453 9.22557C28.1742 9.09692 28.3786 9.15918 28.624 9.16307L28.1309 10.6982C29.1035 9.64007 29.6644 10.7602 29.2715 11.7295L28.9727 11.9072L28.624 11.7949L28.7061 12.0683L28.2402 11.6308C28.2239 11.838 28.0134 11.947 27.9395 12.1787C27.8984 12.3077 27.9076 12.521 27.8525 12.6963C27.7405 13.0526 27.5074 13.3606 27.5381 13.7851C27.5684 13.9866 28.0773 14.2292 28.0635 14.5488C28.0378 15.1347 27.4039 15.9599 27.249 16.5391C27.2962 16.761 27.4677 16.9016 27.5537 17.1152C27.6177 17.2744 27.9102 18.4423 27.8984 18.5547C27.8603 18.9189 27.634 18.9611 27.3945 19.0947C27.2575 19.1712 27.3636 19.3331 26.9814 19.2002C26.9004 19.2609 26.8454 19.8639 26.7871 19.9687C26.775 19.9902 26.4318 20.0374 26.4033 20.2383L26.1289 19.6914L26.1064 20.042L25.9404 20.0723C25.8444 19.1653 25.0271 18.3498 25.0176 17.416C25.0048 16.1342 25.9179 14.0038 25.7725 12.7558C25.7603 12.652 25.6439 12.6179 25.6631 12.5078L26.1016 12.3974L26.0469 12.2666L26.6777 10.5342L26.376 10.6982L26.3701 10.541C26.1113 10.5502 26.1371 10.31 25.8545 10.5176L25.7188 10.3965C26.2463 10.0602 26.1884 9.53781 26.4004 9.04979C26.614 8.55832 27.1383 8.04053 27.417 7.57421C26.7819 7.25611 26.7399 6.47902 26.3203 5.95507C26.0668 5.63858 25.6434 5.33641 25.2617 5.15038C24.043 4.55672 22.8025 3.92584 21.6309 3.24218C21.2532 3.02176 21.1854 2.60889 20.8877 2.33983C19.2895 2.08673 18.9208 0.732542 17.1523 1.11718C16.5697 1.24393 15.9732 1.64161 15.3672 1.74511C13.7462 2.02192 11.9365 1.93615 10.584 3.10253C9.86323 3.72422 8.6215 5.61028 8.14746 6.4785C7.64261 7.40328 7.79811 8.00679 6.81934 8.71483C6.39008 9.02529 5.86244 9.33865 5.32031 9.21776C5.74539 9.71397 6.40851 10.0126 6.63867 10.668C6.74356 10.9668 6.75885 11.3419 6.85254 11.6523L6.63672 11.6855C6.60814 11.8223 6.74516 11.9692 6.73242 12.0889C6.72269 12.1722 6.3982 12.5993 6.25586 12.5058C6.09286 12.1224 5.9442 11.5505 5.7041 11.2197C5.03514 10.2987 3.76513 9.51668 2.60645 9.54784C1.91921 9.56636 1.02452 9.66047 1.04395 10.5049C1.09421 12.6781 2.14461 13.1433 2.78125 14.8545C3.24604 16.104 3.60106 18.7765 4.25586 19.6865C4.46548 19.9778 5.45288 20.8227 5.77441 20.9111C6.04923 20.9864 6.00021 20.7548 6.19727 20.7334C6.11715 20.9884 6.35393 21.0444 6.36133 21.0635C6.36715 21.0799 6.23119 21.3435 6.2041 21.3662C6.0534 21.492 5.81429 21.4668 5.74707 21.6543C4.46203 21.726 3.09957 20.3687 2.71094 19.2139C2.69654 19.171 2.7339 19.0955 2.71484 19.0342C2.35985 17.8926 2.07854 16.7528 1.7168 15.5908C1.4115 14.6101 0.721107 13.7937 0.24707 12.8379C0.179263 12.7011 0.105565 12.5625 0.0683594 12.4131C0.0479922 12.331 0.0315972 12.2161 0.133789 12.3476L0.496094 12.6992L0 11.7666C0.308015 11.449 0.0671195 11.0095 0.128906 10.6797C0.215042 10.2212 0.57609 9.78247 0.827148 9.4121C0.892652 9.31511 0.87977 9.17447 0.930664 9.09179C1.2135 8.6349 3.02769 8.51163 3.54004 8.55761C4.00767 8.59963 4.50893 8.83077 4.9668 8.94042C5.13345 8.95449 5.22099 8.60148 5.27734 8.57128C5.40863 8.50122 5.76041 8.56452 5.97559 8.36425C6.26053 8.09855 6.46492 7.11809 6.67969 6.71093C7.09363 5.92634 7.84876 4.82018 8.39453 4.10741C9.74657 2.34164 11.4536 1.56349 13.5879 1.06249C14.4233 0.866386 15.2233 0.877037 16.0039 0.736317C17.213 0.518354 17.5886 -0.0644738 19.1094 0.0058482ZM6.25293 18.5127C6.22332 18.6385 6.59838 18.7741 6.69043 18.8135L6.74512 18.3203L6.25293 18.5127ZM26.2666 16.8945C26.1167 17.4192 26.3086 17.959 26.499 18.4433C26.5278 18.5166 26.5663 18.6914 26.6494 18.7041L26.2666 16.8945ZM6.41797 16.6465L6.47266 17.3877C6.64266 17.2539 6.50071 16.8265 6.52637 16.6201L6.41797 16.6465ZM26.3369 16.1709L26.2666 16.8398C26.3676 16.8189 26.3667 16.7318 26.3779 16.6504C26.4242 16.3166 26.4286 15.9212 26.4844 15.5791L26.3369 16.1709Z" fill="white"/>
<path d="M17.0977 26.166C17.295 26.0827 17.6787 26.1289 17.8662 26.2266C17.9722 26.3726 17.747 26.8125 17.5879 26.8896C17.4898 26.9371 17.3501 26.9163 17.2715 26.957C16.9153 27.1418 16.7265 27.3064 16.2871 27.3994C15.9832 27.4636 16.1033 27.3018 15.9893 27.3125C15.8759 27.3232 15.7846 27.4246 15.6836 27.4531C15.5488 27.4909 15.3973 27.402 15.2441 27.5889C15.1653 27.3201 15.5755 27.3735 15.6279 27.2324L15.5186 27.1777C15.7253 26.928 16.1032 26.909 16.3623 26.7578C16.5172 26.6672 16.9373 26.2337 17.0977 26.166Z" fill="white"/>
<path d="M18.0742 23.9697C18.921 23.9158 20.1369 25.7563 19.5039 26.418C19.2368 26.6968 18.936 26.4868 18.7246 26.4951C18.5971 26.5002 18.4336 26.6617 18.2598 26.5996L18.4287 26.4072C18.4294 25.9826 18.2099 25.7009 18.0391 25.3389H17.9316C17.9022 25.5435 17.6069 25.6319 17.4404 25.5596L17.2354 25.8262C17.1322 25.8287 16.9696 25.4769 16.7969 25.458C16.7389 25.4517 16.6306 25.5633 16.4785 25.5654C16.3037 25.5676 16.2667 25.4682 16.1221 25.4482C16.3986 25.7489 15.5169 26.8247 15.3545 26.6543C15.3676 26.0898 15.0294 24.9639 15.2705 24.4609C15.3148 24.3688 15.5803 24.295 15.5859 24.0898C15.9589 23.989 16.356 24.0444 16.7363 24.0928C16.8865 24.1118 17.0795 24.2297 17.1816 24.2275C17.391 24.2228 17.8457 23.9843 18.0742 23.9697Z" fill="white"/>
<path fill-rule="evenodd" clip-rule="evenodd" d="M16.3135 19.6885C17.185 19.6264 18.0882 19.7754 18.9453 19.8027C19.3695 19.8162 19.8822 19.7033 20.2588 19.751C20.8713 19.8287 21.4828 20.5633 22.0244 20.8359C22.7942 21.2234 23.4179 20.8448 24.1299 21.7461C24.4354 22.1329 24.2754 22.1477 24.3838 22.5351C24.4888 22.9102 24.8032 23.5691 24.8213 23.9131C24.8287 24.0548 24.6744 24.2173 24.7266 24.4043L24.5674 24.4072L24.623 24.5713C24.1986 24.7249 24.114 24.2192 23.8193 24.0273C23.4608 24.317 22.7538 24.4197 22.3066 24.2822C22.0349 24.1986 21.6194 23.7713 21.3164 23.6279C20.6582 23.3164 20.2902 23.454 19.6729 23.3516C19.3984 23.3058 19.0512 23.0712 18.7676 22.9961C17.5997 22.6869 16.5927 22.5968 15.4072 22.8408C14.9964 22.9256 14.332 23.3801 13.8438 23.5254C13.3344 23.6768 12.6637 23.6565 12.2393 23.7851C11.9981 23.8583 11.8799 24.1694 11.5869 24.2295C11.2589 24.2966 10.4909 24.2313 10.2041 24.0478C9.97804 23.9029 9.5536 23.1951 9.50195 22.9414C9.3489 22.1882 10.0467 21.6918 10.6787 21.5098L10.8867 21.6641C11.4619 21.0969 12.2941 21.047 13.0137 20.7754C14.1017 20.3647 15.1155 19.7738 16.3135 19.6885ZM12.8594 22.3242C12.4126 22.2358 12.1851 22.562 11.7949 22.6826C11.5663 22.7532 11.0894 22.836 10.8604 22.8164C10.7989 22.8817 11.0827 23.4307 11.2266 23.4648C11.4831 23.5238 11.7476 23.2705 11.9434 23.2148C12.4486 23.0713 12.8676 23.0967 13.3818 23.1445C13.2498 22.9486 13.1135 22.3746 12.8594 22.3242ZM20.416 21.2988C20.2359 21.3081 19.8963 21.556 19.6465 21.5967C18.7809 21.7373 18.1155 21.4388 17.418 21.5068C16.982 21.5493 16.4328 21.8565 16.0137 21.9951C15.9496 22.0612 16.0083 22.1008 16.0947 22.1035C16.409 22.1132 16.9543 21.8944 17.3057 21.8828C17.9298 21.8623 19.3078 22.0989 19.9307 22.2715C20.1445 22.3307 20.4116 22.5092 20.5957 22.5391C20.8937 22.5874 21.2555 22.5031 21.5664 22.5557C22.002 22.6294 22.4678 23.0823 22.8486 23.2939C23.1767 23.3176 23.0139 23.0139 23.3359 23.041L23.3525 22.4961C23.0354 22.4095 22.7241 21.937 22.4316 21.8545C22.1985 21.7889 21.8823 21.8272 21.5957 21.7588C21.2074 21.666 20.771 21.2806 20.416 21.2988ZM16.1504 20.5088C15.1022 20.5239 14.0088 21.1218 13.041 21.4609C12.62 21.6084 12.0245 21.6832 11.627 21.8564C11.5677 21.8823 10.83 22.3612 10.7998 22.4004C10.7296 22.4916 10.7496 22.6028 10.751 22.707C10.8838 22.6517 10.9368 22.5579 10.8594 22.4326C11.0836 22.4043 11.3191 22.3866 11.5342 22.3115C12.0902 22.1173 12.3974 21.6196 13.082 21.5791C13.2281 21.5709 13.9169 21.7887 13.9854 21.7197L13.9844 21.3906L14.5889 21.25L14.8496 21.6641L15.4268 21.708C15.7998 21.5437 15.3933 21.2091 15.4102 21.1445C15.5611 21.0587 15.6079 21.0353 15.5752 20.8428L15.7344 20.8926L15.8223 20.7344L16.0684 20.9521L16.0146 20.6787C16.1579 20.5174 16.281 21.2499 16.3164 21.2822C16.3926 21.2993 17.5401 20.8262 17.8008 20.793C18.0643 20.7594 18.551 20.8182 18.8379 20.8418C19.1737 20.8694 19.6618 21.1377 19.9619 20.7881C19.4884 20.4372 19.22 20.5673 18.7305 20.5703C17.8735 20.5755 16.9958 20.4966 16.1504 20.5088ZM13.9854 22.3232L14.0947 22.707L14.3691 22.6514C14.2728 22.516 14.1997 22.2879 13.9854 22.3232Z" fill="white"/>
<path fill-rule="evenodd" clip-rule="evenodd" d="M19.2246 3.7412C19.4943 3.71018 20.5264 3.79315 20.7969 3.85643C21.0293 3.911 21.2163 4.10116 21.2891 4.32323L21.4717 4.39061C22.4265 4.17721 22.515 4.68768 22.5488 5.5039C22.6539 5.81607 24.4904 6.32464 24.8926 6.50487C25.5442 6.79704 26.1097 7.26363 26.8164 7.44237C26.8408 7.68769 26.8099 7.87469 26.6289 8.04686C26.5576 8.11431 25.8464 8.49542 25.7568 8.51952C25.6878 8.53779 24.915 8.64929 24.8242 8.65233C24.5216 8.66238 24.1596 8.5226 23.8525 8.61425L23.9072 8.45116C22.9413 8.43777 22.3673 7.80668 21.876 7.0537C21.8051 6.94494 21.8467 6.8283 21.7686 6.72362C21.7217 6.66114 21.2492 6.40467 21.1104 6.28515C20.5444 5.79671 20.0968 4.75584 19.2402 4.86327C19.2095 4.90578 19.1452 5.50866 19.1377 5.62694C19.1108 6.05538 19.0697 6.69189 19.0771 7.10741C19.0869 7.64611 19.3435 8.32906 19.3564 8.88866C19.6087 8.67472 19.8804 7.9961 20.1504 7.84081C20.2565 7.78006 20.3244 7.85151 20.3965 7.8203C20.6088 7.72799 20.8409 7.29828 20.8369 8.01171C21.0215 7.92832 21.763 7.78599 21.707 8.13671L21.6045 8.3955C22.4014 8.23575 22.4661 8.75444 22.8936 9.1621C23.4448 9.68781 25.1322 10.5805 24.9248 11.4697C24.8633 11.7091 24.6624 11.8926 24.4561 11.6855L24.6191 11.959L24.4023 11.9892L24.0713 11.5478L23.085 10.8086C23.3593 11.352 24.4243 12.3566 24.3965 12.9658C24.3546 13.8671 23.2895 13.8869 22.6338 13.7539C22.2798 13.682 21.8583 13.4359 21.5166 13.3906C21.1749 13.3454 20.7865 13.4247 20.4385 13.3721C19.7797 13.2725 19.1851 12.7017 18.8652 12.1484C18.7441 11.9872 18.5815 12.1357 18.5986 12.3008C18.9368 13.1151 18.926 14.0091 19.1104 14.8652C19.5113 14.9973 19.8716 15.4767 20.2598 15.1006C21.2008 15.3052 21.3184 16.9209 20.3564 17.1035C20.3042 17.1133 19.6882 17.117 19.6104 17.1113C19.356 17.0926 19.1635 16.9136 18.918 16.8955C19.2539 17.6254 18.5756 18.6817 17.793 18.7598C17.3798 18.8008 16.3964 18.702 16.0479 18.4756C15.7846 18.3043 15.0027 17.4183 15.1016 17.1123C15.3261 16.7553 15.3338 16.3995 15.8643 16.3506C16.4502 16.9656 16.6955 18.0741 17.7646 18.0224C17.8971 17.9606 17.9731 17.613 17.9834 17.4707C18.0014 17.2203 17.8524 16.9998 17.834 16.7998C17.8064 16.4977 17.8058 15.8192 17.9365 15.5586C18.1117 15.2104 18.3878 15.2197 18.3711 14.7275C18.3544 14.2414 17.1529 12.5094 16.752 12.2334C16.0876 11.7759 16.1681 12.679 15.6279 12.5625C15.5661 12.6235 15.7821 12.8735 15.7998 12.8818C15.8315 12.8963 16.0609 12.759 16.1484 12.9463C16.2432 12.7469 16.3158 12.741 16.5205 12.8349C17.1178 13.7235 16.6403 15.7347 15.3535 15.6894C15.4559 15.9744 15.5198 16.058 15.3916 16.3584C15.2938 16.5874 15.1516 16.5011 15.1133 16.5117C15.0592 16.528 15.1097 16.6976 14.8887 16.5674L14.8604 16.8945C14.5956 16.8425 14.5037 17.0608 14.3252 17.1553C14.1153 17.2661 13.5945 17.3433 13.3525 17.3379C12.5365 17.3193 11.1915 15.9877 12.1182 15.2773L12.0088 15.1689L12.6797 14.6055L13.2139 14.8115C13.166 14.7429 13.5391 14.5353 13.5645 14.5283C14.3482 14.3122 14.8492 14.7231 15.1348 15.4141C15.2422 15.3024 15.4612 15.1963 15.542 15.082C15.6989 14.8597 15.8066 14.0221 15.7979 13.7422C15.7889 13.4583 15.5846 13.2973 15.8486 12.9766C15.6442 12.9156 15.3036 12.5245 15.5723 12.4267C15.3766 12.363 15.6046 11.8828 15.6807 11.7666C15.8847 11.4552 16.7396 10.8813 17.1211 10.9277C17.3673 11.028 17.7089 11.2382 17.9014 11.4131C17.9796 11.4842 18.4157 12.0832 18.4785 12.0146C18.5141 11.8997 18.3937 11.7994 18.3916 11.7139C18.3888 11.5796 18.5263 11.0843 18.6045 10.9336C18.622 10.9006 18.734 10.8841 18.7783 10.8076C18.8925 10.6099 18.8926 10.2022 19.0273 9.98632L18.3691 10.041L18.1494 8.61522L18.2598 9.68456L18.1504 9.76659C17.7065 8.34767 17.6399 6.93777 17.8213 5.46288C17.8321 5.37521 17.9159 4.52316 18.0947 4.66698L18.1494 4.77636C18.2823 4.31247 18.7052 3.80119 19.2246 3.7412ZM12.502 16.7861L12.9951 17.1426L13.418 17.2685L13.4893 17.1699L12.7236 16.7637L12.502 16.7861ZM14.2021 15.9619C13.995 15.5448 13.5088 15.0748 13 15.3105C12.984 15.9247 13.6562 16.8339 14.3096 16.6182L13.9834 15.9892L14.2021 15.9619ZM19.7393 15.7978C19.3219 15.8379 19.1249 16.1072 18.6982 15.9629L18.835 16.4551L18.917 16.1279L19.1543 16.1269C19.2063 15.8574 19.7931 16.2382 19.8496 16.1816L19.7393 15.7978ZM21.0557 10.0947C20.827 9.47067 19.9766 9.5874 19.7373 10.1201C19.598 10.4306 19.6231 10.8135 19.3877 11.081L20.2627 12.2861L20.3975 12.2881C20.362 12.118 20.326 11.8352 20.3486 11.668C20.3838 11.4088 20.6763 10.4008 20.7949 10.2197C20.8256 10.1738 20.9903 10.1116 21.0557 10.0947ZM17.876 7.49022L18.0391 8.3955C17.9007 7.22662 18.03 6.04432 18.0674 4.88573L17.876 7.49022Z" fill="white"/>
<path fill-rule="evenodd" clip-rule="evenodd" d="M15.6621 3.62792C16.4719 3.53411 17.2829 4.72348 17.3271 5.4619C17.3683 6.14793 17.0482 6.43214 16.9971 6.99413C16.9484 7.53016 17.2681 8.23847 16.9697 8.66698C16.9136 8.74697 16.6468 8.9546 16.5635 8.97362C16.5258 8.98208 15.8286 8.93297 15.791 8.91503C15.731 8.88396 15.6672 8.65117 15.54 8.62694L15.1357 8.7246C15.4454 9.1274 15.1652 9.41776 15.1943 9.84081C15.2156 10.1453 15.5066 10.7401 15.5127 10.8867C15.5387 11.5751 14.433 12.4833 13.8486 12.7285C13.5978 12.8337 13.2733 12.8634 13.0146 12.9912C12.6859 13.1537 12.3883 13.4988 12.0469 13.668C11.6642 13.8576 11.2828 13.8416 10.9404 14.043L10.8594 13.8242C10.8509 13.938 10.9202 13.9462 10.791 13.9756C10.6258 14.0131 10.4764 14.0662 10.3105 14.0976C10.411 13.8491 10.1961 13.6913 10.1318 13.4267C10.038 13.0401 9.87324 11.8063 9.93945 11.4512C10.0305 10.9646 11.3686 9.24336 11.8086 8.98827C12.5317 8.56926 13.0139 8.73451 13.7803 8.88768C13.9047 8.77862 14.3928 8.46046 14.5293 8.41893C14.6937 8.36902 14.8926 8.43305 15.0264 8.36815C15.1117 8.32672 15.3729 7.90109 15.6162 7.88866C15.6629 7.08833 16.1073 6.30231 15.6582 5.541C15.5608 5.37603 15.149 4.87096 14.957 4.89354C14.8256 4.90902 13.8132 5.6101 13.71 5.73436C13.4641 6.03338 13.3291 6.74258 13.0762 7.12987C12.254 8.38826 10.2532 8.90963 9.0498 9.73925C8.85683 9.70503 8.65705 9.76896 8.47754 9.76464C8.36183 9.76187 8.342 9.59795 8.14551 9.76659L8.11719 9.65722C8.23626 9.63939 8.48674 9.48813 8.55176 9.40526C8.65008 9.27979 8.62459 9.12304 8.70312 9.04882C9.55824 8.24075 11.268 8.04297 12.0342 6.91015C12.1924 6.67592 12.2026 6.38664 12.3389 6.17284C12.4612 5.9815 13.2703 5.07024 13.4395 4.916C13.7481 4.63471 15.2912 3.67103 15.6621 3.62792ZM11.3516 12.1787C11.2639 12.075 11.1315 12.4109 11.1279 12.4795C11.1236 12.5644 11.232 13.1546 11.2734 13.1689L11.9551 12.7529L11.8691 12.623L11.5195 12.5869L11.3516 12.1787ZM12.3652 10.4209C12.2866 10.4301 11.5404 10.6616 11.502 10.6943L11.2979 12.0137L11.4482 11.9453C11.4273 11.6553 11.6217 11.7249 11.7393 11.6064C12.037 11.3055 12.2196 11.0301 12.6553 10.876C12.8503 10.807 13.0724 10.8855 13.1621 10.8389C13.2624 10.7866 13.247 10.6435 13.2871 10.6045C13.3552 10.5384 13.516 10.5481 13.5449 10.4238C13.1572 10.5726 12.7119 10.3805 12.3652 10.4209Z" fill="white"/>
</svg>
